<svg id="Layer_2" height="512" viewBox="0 0 128 128" width="512" xmlns="http://www.w3.org/2000/svg" xmlns:xlink="http://www.w3.org/1999/xlink" data-name="Layer 2"><linearGradient id="linear-gradient" gradientUnits="userSpaceOnUse" x1="107.019" x2="10.231" y1="110.394" y2="13.606"><stop offset="0" stop-color="#00acc1"/><stop offset="1" stop-color="#ffee58"/></linearGradient><path d="m20.869 24.563a1.75 1.75 0 0 1 1.75-1.75h4.381a1.75 1.75 0 0 1 0 3.5h-4.381a1.75 1.75 0 0 1 -1.75-1.75zm97.681 35.063h-26.55a1.75 1.75 0 0 1 -1.75-1.75v-14.813a1.75 1.75 0 0 1 1.75-1.75h19.759a1.751 1.751 0 0 1 1.591 1.021l6.791 14.813a1.75 1.75 0 0 1 -1.591 2.479zm-2.728-3.5-5.186-11.312h-16.886v11.311zm-11.947 35.437a7 7 0 1 1 -7-7 7.008 7.008 0 0 1 7 7zm-3.5 0a3.5 3.5 0 1 0 -3.5 3.5 3.5 3.5 0 0 0 3.5-3.5zm-70.632 0a7 7 0 1 1 -7-7 7.008 7.008 0 0 1 7 7zm-3.5 0a3.5 3.5 0 1 0 -3.5 3.5 3.5 3.5 0 0 0 3.5-3.5zm101.757-33.688v30.813a1.75 1.75 0 0 1 -1.75 1.75h-15.807c.031.372.057.745.057 1.125a13.625 13.625 0 0 1 -27.25 0c0-.38.026-.753.057-1.125h-16.807a1.75 1.75 0 0 1 0-3.5h16.75v-5.5h-51.389a13.714 13.714 0 0 1 3.687 5.5h21.327a1.75 1.75 0 0 1 0 3.5h-20.564c.031.372.057.745.057 1.125a13.625 13.625 0 1 1 -27.25 0c0-.38.026-.753.057-1.125h-7.425a1.75 1.75 0 0 1 -1.75-1.75v-64.125a1.75 1.75 0 0 1 1.75-1.75h13.25a1.75 1.75 0 0 1 0 3.5h-11.5v51.625h79.75v-51.625h-48.632a1.75 1.75 0 0 1 0-3.5h50.382a1.75 1.75 0 0 1 1.75 1.75v9.75h29.5a1.751 1.751 0 0 1 1.591 1.021l10 21.813a1.749 1.749 0 0 1 .159.728zm-114.375 23.563h-10.125v5.5h6.437a13.749 13.749 0 0 1 3.688-5.5zm19.243 10.125a10.242 10.242 0 0 0 -10.125-10.125 10.242 10.242 0 0 0 -10.125 10.125 10.125 10.125 0 0 0 20.25 0zm74.132 0a10.125 10.125 0 0 0 -20.25 0 10.125 10.125 0 0 0 20.25 0zm17.5-4.625v-11.625h-5.083a1.75 1.75 0 0 1 -1.75-1.75v-6.834a1.75 1.75 0 0 1 1.75-1.75h5.083v-6.722l-9.373-20.444h-28.377v44.634a13.615 13.615 0 0 1 22.931 4.491zm0-18.458h-3.333v3.333h3.333z" fill="url(#linear-gradient)"/></svg>